<?xml version="1.0" encoding="UTF-8" standalone="no"?>
<!-- Created with Inkscape (http://www.inkscape.org/) -->

<svg
   xmlns:osb="http://www.openswatchbook.org/uri/2009/osb"
   xmlns:dc="http://purl.org/dc/elements/1.1/"
   xmlns:cc="http://creativecommons.org/ns#"
   xmlns:rdf="http://www.w3.org/1999/02/22-rdf-syntax-ns#"
   xmlns:svg="http://www.w3.org/2000/svg"
   xmlns="http://www.w3.org/2000/svg"
   xmlns:xlink="http://www.w3.org/1999/xlink"
   xmlns:sodipodi="http://sodipodi.sourceforge.net/DTD/sodipodi-0.dtd"
   xmlns:inkscape="http://www.inkscape.org/namespaces/inkscape"
   width="100"
   height="100"
   id="svg2"
   version="1.1"
   inkscape:version="0.48.5 r10040"
   sodipodi:docname="head.svg">
  <defs
     id="defs4">
    <linearGradient
       inkscape:collect="always"
       id="linearGradient3040">
      <stop
         style="stop-color:#553722;stop-opacity:1;"
         offset="0"
         id="stop3042" />
      <stop
         style="stop-color:#553722;stop-opacity:0;"
         offset="1"
         id="stop3044" />
    </linearGradient>
    <inkscape:path-effect
       effect="spiro"
       id="path-effect5380"
       is_visible="true" />
    <linearGradient
       id="linearGradient5344">
      <stop
         style="stop-color:#ffccaa;stop-opacity:1;"
         offset="0"
         id="stop5346" />
      <stop
         style="stop-color:#ffccaa;stop-opacity:0;"
         offset="1"
         id="stop5348" />
    </linearGradient>
    <linearGradient
       id="linearGradient5336">
      <stop
         style="stop-color:#ff8331;stop-opacity:1;"
         offset="0"
         id="stop5338" />
      <stop
         style="stop-color:#ffccaa;stop-opacity:1;"
         offset="1"
         id="stop5340" />
    </linearGradient>
    <linearGradient
       inkscape:collect="always"
       id="linearGradient5328">
      <stop
         style="stop-color:#ffccaa;stop-opacity:1;"
         offset="0"
         id="stop5330" />
      <stop
         style="stop-color:#ffccaa;stop-opacity:0;"
         offset="1"
         id="stop5332" />
    </linearGradient>
    <linearGradient
       id="linearGradient5318">
      <stop
         style="stop-color:#ffccaa;stop-opacity:1"
         offset="0"
         id="stop5320" />
      <stop
         style="stop-color:#000000;stop-opacity:0;"
         offset="1"
         id="stop5322" />
    </linearGradient>
    <linearGradient
       id="linearGradient5284"
       osb:paint="solid">
      <stop
         style="stop-color:#000000;stop-opacity:1;"
         offset="0"
         id="stop5286" />
    </linearGradient>
    <linearGradient
       id="linearGradient3834">
      <stop
         style="stop-color:#b98462;stop-opacity:1;"
         offset="0"
         id="stop3836" />
      <stop
         style="stop-color:#ffccaa;stop-opacity:1;"
         offset="1"
         id="stop3838" />
    </linearGradient>
    <linearGradient
       inkscape:collect="always"
       xlink:href="#linearGradient3834"
       id="linearGradient5314"
       x1="43.689098"
       y1="1004.885"
       x2="55.053314"
       y2="1004.885"
       gradientUnits="userSpaceOnUse" />
    <linearGradient
       inkscape:collect="always"
       xlink:href="#linearGradient5318"
       id="linearGradient5324"
       x1="52.401665"
       y1="54.480003"
       x2="50.76017"
       y2="56.626579"
       gradientUnits="userSpaceOnUse" />
    <linearGradient
       inkscape:collect="always"
       xlink:href="#linearGradient5328"
       id="linearGradient5334"
       x1="-1.8940362"
       y1="41.032345"
       x2="10.480332"
       y2="41.158615"
       gradientUnits="userSpaceOnUse"
       gradientTransform="matrix(0.80468749,0,0,0.2979798,995.18887,-61.967294)" />
    <linearGradient
       inkscape:collect="always"
       xlink:href="#linearGradient5336"
       id="linearGradient5342"
       x1="-2.3892391"
       y1="49.812454"
       x2="36.570236"
       y2="49.181107"
       gradientUnits="userSpaceOnUse" />
    <linearGradient
       inkscape:collect="always"
       xlink:href="#linearGradient5336"
       id="linearGradient5350"
       x1="-12.945712"
       y1="90.33548"
       x2="33.944607"
       y2="90.966827"
       gradientUnits="userSpaceOnUse" />
    <linearGradient
       inkscape:collect="always"
       xlink:href="#linearGradient5336"
       id="linearGradient5354"
       gradientUnits="userSpaceOnUse"
       x1="18.571426"
       y1="48.92857"
       x2="63.086742"
       y2="51.453953" />
    <linearGradient
       inkscape:collect="always"
       xlink:href="#linearGradient3040"
       id="linearGradient3046"
       x1="46.645302"
       y1="70.777672"
       x2="46.738701"
       y2="78.543228"
       gradientUnits="userSpaceOnUse" />
    <linearGradient
       inkscape:collect="always"
       xlink:href="#linearGradient3834"
       id="linearGradient3062"
       gradientUnits="userSpaceOnUse"
       x1="43.689098"
       y1="1004.885"
       x2="55.053314"
       y2="1004.885"
       gradientTransform="translate(0,0.35714285)" />
  </defs>
  <sodipodi:namedview
     id="base"
     pagecolor="#ffffff"
     bordercolor="#666666"
     borderopacity="1.0"
     inkscape:pageopacity="0.0"
     inkscape:pageshadow="2"
     inkscape:zoom="5.6"
     inkscape:cx="50.406047"
     inkscape:cy="33.962843"
     inkscape:document-units="px"
     inkscape:current-layer="layer1"
     showgrid="false"
     inkscape:window-width="1290"
     inkscape:window-height="782"
     inkscape:window-x="0"
     inkscape:window-y="0"
     inkscape:window-maximized="0" />
  <metadata
     id="metadata7">
    <rdf:RDF>
      <cc:Work
         rdf:about="">
        <dc:format>image/svg+xml</dc:format>
        <dc:type
           rdf:resource="http://purl.org/dc/dcmitype/StillImage" />
        <dc:title />
      </cc:Work>
    </rdf:RDF>
  </metadata>
  <g
     inkscape:label="Layer 1"
     inkscape:groupmode="layer"
     id="layer1"
     transform="translate(0,-952.36218)">
    <path
       style="fill:#c83737;stroke:none"
       d="m 14.714286,1080.8776 5.875089,-34.1489 33.781766,-13.9534 33.414573,24.2348 z"
       id="path3778"
       inkscape:connector-curvature="0" />
    <path
       style="fill:#ff6600;stroke:none;stroke-width:1px;stroke-linecap:butt;stroke-linejoin:miter;stroke-opacity:1"
       d="M 23.928571,-4.2857145 44.285714,32.142857 -9.2857143,63.571429 -6.4285714,-5.7142859 z"
       id="path3772"
       inkscape:connector-curvature="0"
       transform="translate(0,952.36218)" />
    <path
       style="fill:#916f6f;stroke:none;stroke-width:1px;stroke-linecap:butt;stroke-linejoin:miter;stroke-opacity:1"
       d="M -15.357143,62.5 52.5,26.785714 53.928572,81.428571 22.142857,94.642857 -12.5,92.142857 z"
       id="path3774"
       inkscape:connector-curvature="0"
       transform="translate(0,952.36218)" />
    <path
       style="fill:#ffdd55;stroke:none;stroke-width:1px;stroke-linecap:butt;stroke-linejoin:miter;stroke-opacity:1;fill-opacity:1"
       d="m -21.428571,89.642857 43.214285,5 L 19.642857,118.92857 -17.5,116.07143 z"
       id="path3776"
       inkscape:connector-curvature="0"
       transform="translate(0,952.36218)" />
    <path
       style="fill:#aa8800;stroke:none"
       d="m 51.821888,977.79075 1.097181,55.22475 41.3271,29.9895 14.994791,-8.7774 0.36572,-62.53924 z"
       id="path3780"
       inkscape:connector-curvature="0" />
    <path
       style="fill:#d3bc5f;stroke:none;stroke-width:1px;stroke-linecap:butt;stroke-linejoin:miter;stroke-opacity:1"
       d="M 52.5,26.071428 104.64286,38.928571 104.28571,-5.7142859 64.642857,-3.9285716 54.285714,10.357143 z"
       id="path3782"
       inkscape:connector-curvature="0"
       transform="translate(0,952.36218)" />
    <path
       style="fill:#e9c6af;stroke:none;stroke-width:1px;stroke-linecap:butt;stroke-linejoin:miter;stroke-opacity:1"
       d="m 43.928571,30.714286 8.214286,-5 1.785715,-15 -33.214286,-18.9285719 z"
       id="path3784"
       inkscape:connector-curvature="0"
       transform="translate(0,952.36218)" />
    <path
       style="fill:#ffb380;stroke:none"
       d="M 54.502422,963.95538 71.5,943.98326 21.357143,944.83311 z"
       id="path3786"
       inkscape:connector-curvature="0" />
    <path
       sodipodi:type="arc"
       style="fill:url(#linearGradient5342);fill-opacity:1;stroke:none"
       id="path2985"
       sodipodi:cx="53.392857"
       sodipodi:cy="48.92857"
       sodipodi:rx="34.82143"
       sodipodi:ry="42.5"
       d="m 88.214287,48.92857 c 0,23.472102 -15.590086,42.5 -34.82143,42.5 -19.231345,0 -34.821431,-19.027898 -34.821431,-42.5 0,-23.472102 15.590086,-42.5000002 34.821431,-42.5000002 19.223458,0 34.810274,19.0128782 34.821424,42.4753492 l -34.821424,0.02465 z"
       transform="translate(-3.2142857,953.79075)"
       sodipodi:start="0"
       sodipodi:end="6.2826053" />
    <path
       style="fill:url(#linearGradient5350);stroke:none;stroke-width:1px;stroke-linecap:butt;stroke-linejoin:miter;stroke-opacity:1"
       d="M 26.071429,76.785714 73.214286,77.5 c 0,0 -10.357143,10 -10.357143,16.071429 0,7.160671 8.928571,11.071431 8.928571,11.071431 L 30,104.28571 c 0,0 8.70416,-3.19239 8.214286,-9.999996 -0.487713,-6.777581 -12.142857,-17.5 -12.142857,-17.5 z"
       id="path3770"
       inkscape:connector-curvature="0"
       transform="translate(0,952.36218)"
       sodipodi:nodetypes="ccsccsc" />
    <g
       id="g3052">
      <g
         transform="matrix(1.1094512,0,0,1.1094512,-5.5024391,-107.4235)"
         id="g3817">
        <path
           style="fill:#00002b;stroke:#000000;stroke-width:1px;stroke-linecap:butt;stroke-linejoin:miter;stroke-opacity:1"
           d="m 32.5,48.214286 c 0,0 1.785714,-4.642858 5.714286,-4.642858 3.928571,0 5.714285,3.928572 5.714285,3.928572 0,0 -1.785714,3.571428 -4.642857,3.571428 -2.857143,0 -6.785714,-2.857142 -6.785714,-2.857142 z"
           id="path3807"
           inkscape:connector-curvature="0"
           transform="translate(0,952.36218)" />
        <path
           style="fill:#3737c8;stroke:none"
           d="m 38.259528,44.062803 c 0,0 -2.146574,-0.126269 -2.77792,0.883883 -0.631345,1.010153 -0.631345,1.641498 -0.505076,2.525382 0.126269,0.883883 0.378807,2.020305 1.38896,2.399112 1.010152,0.378807 1.767767,0.757614 2.65165,0.757614 0.883884,0 2.020305,-0.757614 2.020305,-0.757614 0,0 1.010153,-0.505076 0.883884,-2.146574 -0.126269,-1.641498 -0.126269,-2.146574 -1.010153,-2.904189 -0.883883,-0.757614 -1.515229,-0.883883 -2.65165,-0.757614 z"
           id="path3813"
           inkscape:connector-curvature="0"
           transform="translate(0,952.36218)" />
        <path
           sodipodi:type="arc"
           style="fill:#00002b;fill-opacity:1;stroke:none"
           id="path3815"
           sodipodi:cx="38.512066"
           sodipodi:cy="46.966991"
           sodipodi:rx="1.6414979"
           sodipodi:ry="1.767767"
           d="m 40.153564,46.966991 c 0,0.976311 -0.734924,1.767767 -1.641498,1.767767 -0.906574,0 -1.641498,-0.791456 -1.641498,-1.767767 0,-0.97631 0.734924,-1.767767 1.641498,-1.767767 0.90632,0 1.641138,0.791029 1.641498,1.767066 l -1.641498,7.01e-4 z"
           transform="matrix(0.92307692,0,0,0.85714286,2.9624667,959.19802)"
           sodipodi:start="0"
           sodipodi:end="6.2827885" />
      </g>
      <g
         transform="matrix(-1.1094512,0,0,1.1094512,106.0484,-107.28341)"
         id="g3822">
        <path
           transform="translate(0,952.36218)"
           inkscape:connector-curvature="0"
           id="path3824"
           d="m 32.5,48.214286 c 0,0 1.785714,-4.642858 5.714286,-4.642858 3.928571,0 5.714285,3.928572 5.714285,3.928572 0,0 -1.785714,3.571428 -4.642857,3.571428 -2.857143,0 -6.785714,-2.857142 -6.785714,-2.857142 z"
           style="fill:#00002b;stroke:#000000;stroke-width:1px;stroke-linecap:butt;stroke-linejoin:miter;stroke-opacity:1" />
        <path
           transform="translate(0,952.36218)"
           inkscape:connector-curvature="0"
           id="path3826"
           d="m 38.259528,44.062803 c 0,0 -2.146574,-0.126269 -2.77792,0.883883 -0.631345,1.010153 -0.631345,1.641498 -0.505076,2.525382 0.126269,0.883883 0.378807,2.020305 1.38896,2.399112 1.010152,0.378807 1.767767,0.757614 2.65165,0.757614 0.883884,0 2.020305,-0.757614 2.020305,-0.757614 0,0 1.010153,-0.505076 0.883884,-2.146574 -0.126269,-1.641498 -0.126269,-2.146574 -1.010153,-2.904189 -0.883883,-0.757614 -1.515229,-0.883883 -2.65165,-0.757614 z"
           style="fill:#3737c8;stroke:none" />
        <path
           sodipodi:end="6.2827885"
           sodipodi:start="0"
           transform="matrix(0.92307692,0,0,0.85714286,2.9624667,959.19802)"
           d="m 40.153564,46.966991 c 0,0.976311 -0.734924,1.767767 -1.641498,1.767767 -0.906574,0 -1.641498,-0.791456 -1.641498,-1.767767 0,-0.97631 0.734924,-1.767767 1.641498,-1.767767 0.90632,0 1.641138,0.791029 1.641498,1.767066 l -1.641498,7.01e-4 z"
           sodipodi:ry="1.767767"
           sodipodi:rx="1.6414979"
           sodipodi:cy="46.966991"
           sodipodi:cx="38.512066"
           id="path3828"
           style="fill:#00002b;fill-opacity:1;stroke:none"
           sodipodi:type="arc" />
      </g>
    </g>
    <path
       style="fill:url(#linearGradient3062);fill-opacity:1;stroke:none"
       d="m 47.47717,993.12032 -0.252538,16.79378 -2.399112,2.9042 -1.136422,2.3991 0.505076,1.1364 1.262691,0.5051 1.894036,0.1262 1.894036,0.3788 1.894036,0 1.767767,-0.2525 2.272843,-0.6313 1.262691,-0.8839 -0.378807,-1.5153 -1.262691,-1.3889 -1.767767,-2.7779 0.252538,-16.79378 z"
       id="path3832"
       inkscape:connector-curvature="0"
       sodipodi:nodetypes="ccccccccccccccccc" />
    <rect
       style="fill:url(#linearGradient5334);fill-opacity:1;stroke:none"
       id="rect5326"
       width="13.005713"
       height="7.4498754"
       x="990.61664"
       y="-53.916958"
       transform="matrix(0,1,-1,0,0,0)" />
    <path
       style="fill:url(#linearGradient3046);stroke:none;stroke-width:1px;stroke-linecap:butt;stroke-linejoin:miter;stroke-opacity:1;fill-opacity:1"
       d="m 41.668793,77.902913 c 0,0 2.399112,1.136422 6.187184,1.010153 3.788072,-0.126269 4.924494,-0.505077 6.060915,-0.631346 1.136422,-0.126269 3.409265,-1.515229 1.641498,-1.894036 -1.767767,-0.378807 -2.904188,0.252538 -4.924494,0.505076 -2.020305,0.252539 -4.545686,0.12627 -6.187184,-0.126269 -1.641498,-0.252538 -4.924494,-0.757614 -2.777919,1.136422 z"
       id="path5356"
       inkscape:connector-curvature="0"
       transform="translate(0,952.36218)" />
    <g
       id="g3046"
       transform="matrix(1.0214738,0,0,1.1583229,-1.8189143,-151.81068)">
      <path
         transform="translate(0,952.36218)"
         inkscape:connector-curvature="0"
         id="path5368"
         d="m 42.678945,8.3286564 c 0,0 -11.616754,4.0406106 -14.647212,8.0812206 -3.030457,4.04061 -4.545686,5.303301 -6.565991,9.596449 -2.020305,4.293148 2.777919,12.626907 3.535534,5.050763 0.757614,-7.576144 3.535533,-12.626907 6.818529,-14.142136 3.282996,-1.515229 9.091373,-5.303301 10.354064,-5.555839 1.26269,-0.252538 3.788072,-3.0304576 0.505076,-3.0304576 z"
         style="fill:none;stroke:none" />
      <path
         transform="translate(0,952.36218)"
         inkscape:connector-curvature="0"
         id="path5595"
         d="m 50.255089,6.5608895 c 0,0 -12.868634,0.2725253 -18.908506,5.3723365 -6.796398,5.73859 -8.07176,6.387515 -11.127606,13.350003 -3.362637,7.661488 -4.309074,9.81447 -4.309074,9.81447 0,0 20.960665,1.767767 33.335034,-1.515229 12.374368,-3.282996 18.687822,-2.777919 27.779195,0.505076 9.091373,3.282996 7.576144,0.757615 7.576144,0.757615 0,0 -4.168026,-27.1832544 -34.345187,-28.2842715 z"
         style="fill:#946435;fill-opacity:1;stroke:none"
         sodipodi:nodetypes="csscsscc" />
      <path
         transform="translate(0,952.36218)"
         inkscape:connector-curvature="0"
         id="path5599"
         d="m 21.213203,27.016479 c -6.060915,11.111678 -7.071067,15.657364 -7.071067,15.657364 0,0 8.838834,-8.333759 12.12183,-13.889598 3.282996,-5.555839 -2.020305,11.869293 -2.020305,11.869293 0,0 13.637059,-10.606602 13.131983,-14.142136 -0.505076,-3.535534 -2.020305,12.374369 -2.020305,12.374369 0,0 10.354064,-9.343911 8.838835,-11.869292 -1.515229,-2.525382 0.252538,13.384521 0.252538,13.384521 0,0 6.313453,-6.313454 5.808377,-9.848988 -0.505076,-3.535533 4.798225,10.101526 4.798225,10.101526 0,0 4.293148,-9.848987 2.272843,-12.121831 -2.020305,-2.272843 0.505076,10.101526 0.505076,10.101526 0,0 7.576144,-6.313454 6.81853,-8.081221 -0.757614,-1.767767 0,5.808378 0,5.808378 0,0 4.798225,-3.788072 4.545686,-7.071068 -0.252538,-3.282996 4.798225,8.08122 4.798225,8.08122 0,0 3.282996,-5.808377 1.767767,-8.08122 -1.515229,-2.272843 3.788072,9.343911 3.788072,9.343911 0,0 1.767767,-7.576144 -0.252538,-11.364216 C 77.27667,23.480945 21.213203,27.016479 21.213203,27.016479 z"
         style="fill:#946435;fill-opacity:1;stroke:none" />
      <path
         transform="translate(0,952.36218)"
         inkscape:connector-curvature="0"
         id="path5607"
         d="m 20.455589,32.067241 c -1.767767,11.364216 1.010153,8.838835 1.010153,8.838835 0,0 4.798224,-2.020305 4.545686,-8.838835 -0.252538,-6.818529 6.313453,8.838835 6.313453,8.838835 0,0 2.272844,-6.060915 2.272844,-11.869292 0,-5.808378 6.818529,11.111678 6.818529,11.111678 0,0 2.272844,-3.788072 2.525382,-8.333759 0.252538,-4.545686 3.030457,-0.252538 3.030457,-0.252538 0,0 3.030458,2.020305 3.030458,-2.272843 0,-4.293149 -0.505076,9.343911 -0.505076,9.343911 0,0 5.050763,-5.303301 5.555839,-6.060915 0.505076,-0.757615 5.050763,-2.525382 5.050763,-2.525382 l 1.767766,9.343911 c 0,0 3.282996,-8.838835 3.030458,-10.101525 -0.252538,-1.262691 4.545687,7.071068 4.545687,7.071068 0,0 5.555839,-5.555839 3.535533,-7.576145 -2.020305,-2.020305 4.798225,12.879445 4.798225,12.879445 0,0 0.505076,-7.071067 0,-9.596449 -0.505076,-2.525381 6.313453,11.364216 6.313453,11.364216 0,0 2.77792,-11.364216 -3.535533,-15.152288 -6.313454,-3.788072 -60.104077,3.788072 -60.104077,3.788072 z"
         style="fill:#946435;fill-opacity:1;stroke:none" />
      <path
         transform="translate(0,952.36218)"
         inkscape:connector-curvature="0"
         id="path5611"
         d="m 19.697975,30.552012 c -1.767767,5.555839 -5.050763,15.152289 -5.050763,15.152289 0,0 3.788072,-7.323606 5.555839,-7.576144 1.767767,-0.252539 0.757614,5.3033 0.757614,5.3033 0,0 2.525382,-5.808377 4.040611,-7.323606 1.515228,-1.515228 -5.303301,-5.555839 -5.303301,-5.555839 z"
         style="fill:#946435;fill-opacity:1;stroke:none" />
      <path
         transform="translate(0,952.36218)"
         inkscape:connector-curvature="0"
         id="path5613"
         d="m 21.465742,29.794398 c -2.272844,6.313453 -4.040611,13.637059 -4.040611,13.637059 0,0 2.77792,-5.555839 5.555839,-8.333758 2.77792,-2.77792 -1.515228,-5.303301 -1.515228,-5.303301 z"
         style="fill:#946435;fill-opacity:1;stroke:none" />
      <path
         transform="translate(0,952.36218)"
         inkscape:connector-curvature="0"
         id="path5615"
         d="m 73.23606,25.248712 c 4.545686,7.323606 9.848987,21.213203 9.848987,21.213203 0,0 -0.252538,-8.08122 -2.272843,-12.626907 -2.020305,-4.545686 -7.576144,-8.586296 -7.576144,-8.586296 z"
         style="fill:#946435;fill-opacity:1;stroke:none" />
      <path
         transform="translate(0,952.36218)"
         inkscape:connector-curvature="0"
         id="path5617"
         d="m 73.23606,26.006326 c 9.091373,8.333758 11.111678,21.970818 11.111678,21.970818 0,0 -1.010153,-11.364216 -1.767767,-13.889598 -0.757615,-2.525381 -9.343911,-8.08122 -9.343911,-8.08122 z"
         style="fill:#946435;fill-opacity:1;stroke:none" />
      <path
         transform="translate(0,952.36218)"
         inkscape:connector-curvature="0"
         id="path5619"
         d="m 54.548238,24.743635 c 8.08122,6.313454 8.586296,14.647212 8.586296,14.647212 0,0 0.505076,-5.050763 2.525382,-8.586296 2.020305,-3.535534 -11.111678,-6.060916 -11.111678,-6.060916 z"
         style="fill:#946435;fill-opacity:1;stroke:none" />
      <path
         transform="translate(0,952.36218)"
         inkscape:connector-curvature="0"
         id="path5621"
         d="m 62.629458,27.774093 c 2.525381,6.313453 2.020305,12.374369 2.020305,12.374369 0,0 2.020305,-3.030458 2.525381,-7.323606 0.505077,-4.293149 -4.545686,-5.050763 -4.545686,-5.050763 z"
         style="fill:#946435;fill-opacity:1;stroke:none" />
      <path
         transform="translate(0,952.36218)"
         inkscape:connector-curvature="0"
         id="path5623"
         d="m 63.63961,27.269017 c 3.282996,4.04061 3.282996,13.131983 3.282996,13.131983 0,0 3.282996,-7.323606 2.525382,-9.596449 -0.757615,-2.272844 -5.808378,-3.535534 -5.808378,-3.535534 z"
         style="fill:#946435;fill-opacity:1;stroke:none" />
      <path
         transform="translate(0,952.36218)"
         inkscape:connector-curvature="0"
         id="path5625"
         d="m 35.355339,32.067241 c 2.272843,5.303301 1.262691,8.586297 1.262691,8.586297 0,0 4.798224,-7.071068 2.777919,-8.586297 -2.020305,-1.515229 -4.04061,0 -4.04061,0 z"
         style="fill:#946435;fill-opacity:1;stroke:none" />
      <path
         transform="translate(0,952.36218)"
         inkscape:connector-curvature="0"
         id="path5627"
         d="m 21.465742,32.824856 c 2.272843,6.060915 -0.252539,13.889597 -0.252539,13.889597 0,0 4.798225,-10.85914 4.798225,-12.879445 0,-2.020305 -4.545686,-1.010152 -4.545686,-1.010152 z"
         style="fill:#946435;fill-opacity:1;stroke:none" />
    </g>
  </g>
</svg>
